# xmcd CD database file
# Copyright (C) 1993-1998 Ti Kan
#
# Track frame offsets:
#  150
#  13179
#  25110
#  36261
#  45836
#  55367
#  65428
#  76915
#  88214
#  96269
#  109359
#  123473
#  133827
#  144656
#
# Disc length: 2078 seconds
#
# Revision: 1
# Processed by: cddbd v1.4b41PL1 Copyright (c) Steve Scherf et al.
# Submitted via: CDWizzard Release:4.31
#
DISCID=c3081c0e
DTITLE=Peggy Lee - Fever
DYEAR=1900
DGENRE=
TTITLE0=Allright, okay, you win
TTITLE1=Cheek to cheek
TTITLE2=Hallelujah I love him so
TTITLE3=I could have danced all night
TTITLE4=L.O.V.E
TTITLE5=It's a wonderful world
TTITLE6=Something
TTITLE7=Till there was you
TTITLE8=I'm beginning to see the light
TTITLE9=That's all
TTITLE10=What are you doing the rest of your life
TTITLE11=I'll get by
TTITLE12=Pass me by
TTITLE13=Music music music
EXTD=
EXTT0=
EXTT1=
EXTT2=
EXTT3=
EXTT4=
EXTT5=
EXTT6=
EXTT7=
EXTT8=
EXTT9=
EXTT10=
EXTT11=
EXTT12=
EXTT13=
PLAYORDER=
